<svg width="46" height="12" viewBox="0 0 46 12" fill="none" xmlns="http://www.w3.org/2000/svg">
<path d="M0.758523 9V0.272727H4.25284C4.89489 0.272727 5.4304 0.367898 5.85938 0.558239C6.28835 0.74858 6.6108 1.01278 6.8267 1.35085C7.04261 1.68608 7.15057 2.07244 7.15057 2.50994C7.15057 2.85085 7.08239 3.15057 6.94602 3.40909C6.80966 3.66477 6.62216 3.875 6.38352 4.03977C6.14773 4.2017 5.87784 4.31676 5.57386 4.38494V4.47017C5.90625 4.48437 6.21733 4.57812 6.5071 4.75142C6.79972 4.92472 7.03693 5.16761 7.21875 5.48011C7.40057 5.78977 7.49148 6.15909 7.49148 6.58807C7.49148 7.05114 7.37642 7.46449 7.14631 7.82812C6.91903 8.18892 6.58239 8.47443 6.13636 8.68466C5.69034 8.89489 5.14063 9 4.48722 9H0.758523ZM2.60369 7.49148H4.10795C4.62216 7.49148 4.99716 7.39347 5.23295 7.19744C5.46875 6.99858 5.58665 6.73437 5.58665 6.40483C5.58665 6.16335 5.52841 5.95028 5.41193 5.76562C5.29545 5.58097 5.12926 5.43608 4.91335 5.33097C4.70028 5.22585 4.44602 5.1733 4.15057 5.1733H2.60369V7.49148ZM2.60369 3.92472H3.97159C4.22443 3.92472 4.44886 3.88068 4.64489 3.79261C4.84375 3.7017 5 3.57386 5.11364 3.40909C5.23011 3.24432 5.28835 3.04688 5.28835 2.81676C5.28835 2.50142 5.17614 2.24716 4.9517 2.05398C4.73011 1.8608 4.41477 1.7642 4.00568 1.7642H2.60369V3.92472ZM11.6154 9.12784C10.9535 9.12784 10.381 8.98722 9.89808 8.70597C9.41797 8.42187 9.04723 8.02699 8.78587 7.52131C8.5245 7.01278 8.39382 6.4233 8.39382 5.75284C8.39382 5.0767 8.5245 4.4858 8.78587 3.98011C9.04723 3.47159 9.41797 3.0767 9.89808 2.79545C10.381 2.51136 10.9535 2.36932 11.6154 2.36932C12.2773 2.36932 12.8484 2.51136 13.3285 2.79545C13.8114 3.0767 14.1836 3.47159 14.445 3.98011C14.7063 4.4858 14.837 5.0767 14.837 5.75284C14.837 6.4233 14.7063 7.01278 14.445 7.52131C14.1836 8.02699 13.8114 8.42187 13.3285 8.70597C12.8484 8.98722 12.2773 9.12784 11.6154 9.12784ZM11.6239 7.72159C11.9251 7.72159 12.1765 7.63636 12.3782 7.46591C12.5799 7.29261 12.7319 7.05682 12.8342 6.75852C12.9393 6.46023 12.9918 6.12074 12.9918 5.74006C12.9918 5.35938 12.9393 5.01989 12.8342 4.72159C12.7319 4.4233 12.5799 4.1875 12.3782 4.0142C12.1765 3.84091 11.9251 3.75426 11.6239 3.75426C11.32 3.75426 11.0643 3.84091 10.8569 4.0142C10.6523 4.1875 10.4975 4.4233 10.3924 4.72159C10.2901 5.01989 10.239 5.35938 10.239 5.74006C10.239 6.12074 10.2901 6.46023 10.3924 6.75852C10.4975 7.05682 10.6523 7.29261 10.8569 7.46591C11.0643 7.63636 11.32 7.72159 11.6239 7.72159ZM16.9272 11.4545C16.6971 11.4545 16.4812 11.4361 16.2795 11.3991C16.0806 11.3651 15.9158 11.321 15.7852 11.267L16.1942 9.91193C16.4073 9.97727 16.5991 10.0128 16.7695 10.0185C16.9428 10.0241 17.092 9.98438 17.217 9.89915C17.3448 9.81392 17.4485 9.66903 17.5281 9.46449L17.6346 9.1875L15.2866 2.45455H17.1957L18.5508 7.26136H18.619L19.9869 2.45455H21.9087L19.3647 9.70739C19.2425 10.0597 19.0763 10.3665 18.8661 10.6278C18.6587 10.892 18.396 11.0952 18.0778 11.2372C17.7596 11.3821 17.3761 11.4545 16.9272 11.4545ZM24.4826 7.11648L24.4869 4.93892H24.7511L26.8477 2.45455H28.9315L26.1147 5.74432H25.6843L24.4826 7.11648ZM22.8377 9V0.272727H24.6531V9H22.8377ZM26.9286 9L25.0025 6.14915L26.2127 4.86648L29.055 9H26.9286ZM32.5099 9.12784C31.848 9.12784 31.2756 8.98722 30.7926 8.70597C30.3125 8.42187 29.9418 8.02699 29.6804 7.52131C29.419 7.01278 29.2884 6.4233 29.2884 5.75284C29.2884 5.0767 29.419 4.4858 29.6804 3.98011C29.9418 3.47159 30.3125 3.0767 30.7926 2.79545C31.2756 2.51136 31.848 2.36932 32.5099 2.36932C33.1719 2.36932 33.7429 2.51136 34.223 2.79545C34.706 3.0767 35.0781 3.47159 35.3395 3.98011C35.6009 4.4858 35.7315 5.0767 35.7315 5.75284C35.7315 6.4233 35.6009 7.01278 35.3395 7.52131C35.0781 8.02699 34.706 8.42187 34.223 8.70597C33.7429 8.98722 33.1719 9.12784 32.5099 9.12784ZM32.5185 7.72159C32.8196 7.72159 33.071 7.63636 33.2727 7.46591C33.4744 7.29261 33.6264 7.05682 33.7287 6.75852C33.8338 6.46023 33.8864 6.12074 33.8864 5.74006C33.8864 5.35938 33.8338 5.01989 33.7287 4.72159C33.6264 4.4233 33.4744 4.1875 33.2727 4.0142C33.071 3.84091 32.8196 3.75426 32.5185 3.75426C32.2145 3.75426 31.9588 3.84091 31.7514 4.0142C31.5469 4.1875 31.392 4.4233 31.2869 4.72159C31.1847 5.01989 31.1335 5.35938 31.1335 5.74006C31.1335 6.12074 31.1847 6.46023 31.2869 6.75852C31.392 7.05682 31.5469 7.29261 31.7514 7.46591C31.9588 7.63636 32.2145 7.72159 32.5185 7.72159ZM42.8033 2.45455L40.5149 9H38.4695L36.1811 2.45455H38.0987L39.4581 7.13778H39.5263L40.8814 2.45455H42.8033ZM44.3832 9.1108C44.1019 9.1108 43.8604 9.01136 43.6587 8.8125C43.4599 8.6108 43.3604 8.36932 43.3604 8.08807C43.3604 7.80966 43.4599 7.57102 43.6587 7.37216C43.8604 7.1733 44.1019 7.07386 44.3832 7.07386C44.6559 7.07386 44.8945 7.1733 45.0991 7.37216C45.3036 7.57102 45.4059 7.80966 45.4059 8.08807C45.4059 8.27557 45.3576 8.44744 45.261 8.60369C45.1673 8.7571 45.0437 8.88068 44.8903 8.97443C44.7369 9.06534 44.5678 9.1108 44.3832 9.1108Z" fill="#161618"/>
</svg>
